HIERARCHY
ROOT Hips
{
    OFFSET   0.000000   0.000000   0.000000
    CHANNELS 6 Xposition Yposition Zposition Zrotation Xrotation Yrotation
    JOINT Chest
    {
        OFFSET   0.000000   8.007240   0.000000
        CHANNELS 3 Zrotation Xrotation Yrotation
        JOINT Chest2
        {
            OFFSET   0.000000  22.077100   0.000000
            CHANNELS 3 Zrotation Xrotation Yrotation
            JOINT Neck
            {
                OFFSET   0.000000  23.254800   0.000000
                CHANNELS 3 Zrotation Xrotation Yrotation
                JOINT Head
                {
                    OFFSET   0.000000  14.370000   1.956600
                    CHANNELS 3 Zrotation Xrotation Yrotation
                    End Site
                    {
                        OFFSET   0.000000  19.566000   0.000000
                    }
                }
            }
            JOINT LeftCollar
            {
                OFFSET   3.911900  19.017000  -0.467064
                CHANNELS 3 Zrotation Xrotation Yrotation
                JOINT LeftShoulder
                {
                    OFFSET  10.383700   0.000000   0.000000
                    CHANNELS 3 Zrotation Xrotation Yrotation
                    JOINT LeftElbow
                    {
                        OFFSET  26.662100   0.001476   0.000517
                        CHANNELS 3 Zrotation Xrotation Yrotation
                        JOINT LeftWrist
                        {
                            OFFSET  28.869000  -0.000025  -0.000106
                            CHANNELS 3 Zrotation Xrotation Yrotation
                            JOINT LeftFinger0
                            {
                                OFFSET   2.044660  -2.323460   3.252850
                                CHANNELS 3 Zrotation Xrotation Yrotation
                                JOINT LeftFinger01
                                {
                                    OFFSET   3.088130   0.000000   0.000000
                                    CHANNELS 3 Zrotation Xrotation Yrotation
                                    JOINT LeftFinger02
                                    {
                                        OFFSET   2.639460   0.000000   0.000000
                                        CHANNELS 3 Zrotation Xrotation Yrotation
                                        End Site
                                        {
                                            OFFSET   2.582190   0.000000   0.000000
                                        }
                                    }
                                }
                            }
                            JOINT LeftFinger1
                            {
                                OFFSET   8.364480   0.000000   3.252850
                                CHANNELS 3 Zrotation Xrotation Yrotation
                                JOINT LeftFinger11
                                {
                                    OFFSET   4.646930   0.000000   0.000000
                                    CHANNELS 3 Zrotation Xrotation Yrotation
                                    JOINT LeftFinger12
                                    {
                                        OFFSET   2.323460   0.000000   0.000000
                                        CHANNELS 3 Zrotation Xrotation Yrotation
                                        End Site
                                        {
                                            OFFSET   2.273050   0.000000   0.000000
                                        }
                                    }
                                }
                            }
                            JOINT LeftFinger2
                            {
                                OFFSET   8.364490   0.000015   1.078090
                                CHANNELS 3 Zrotation Xrotation Yrotation
                                JOINT LeftFinger21
                                {
                                    OFFSET   5.111620   0.000000   0.000000
                                    CHANNELS 3 Zrotation Xrotation Yrotation
                                    JOINT LeftFinger22
                                    {
                                        OFFSET   2.788160   0.000016   0.000000
                                        CHANNELS 3 Zrotation Xrotation Yrotation
                                        End Site
                                        {
                                            OFFSET   2.727660   0.000000   0.000000
                                        }
                                    }
                                }
                            }
                            JOINT LeftFinger3
                            {
                                OFFSET   7.899780   0.000017  -1.078090
                                CHANNELS 3 Zrotation Xrotation Yrotation
                                JOINT LeftFinger31
                                {
                                    OFFSET   4.646930   0.000000   0.000000
                                    CHANNELS 3 Zrotation Xrotation Yrotation
                                    JOINT LeftFinger32
                                    {
                                        OFFSET   2.323470   0.000000   0.000000
                                        CHANNELS 3 Zrotation Xrotation Yrotation
                                        End Site
                                        {
                                            OFFSET   2.273050   0.000000   0.000000
                                        }
                                    }
                                }
                            }
                            JOINT LeftFinger4
                            {
                                OFFSET   7.435090   0.000000  -3.252850
                                CHANNELS 3 Zrotation Xrotation Yrotation
                                JOINT LeftFinger41
                                {
                                    OFFSET   3.717550   0.000000   0.000000
                                    CHANNELS 3 Zrotation Xrotation Yrotation
                                    JOINT LeftFinger42
                                    {
                                        OFFSET   1.858770   0.000000   0.000000
                                        CHANNELS 3 Zrotation Xrotation Yrotation
                                        End Site
                                        {
                                            OFFSET   1.818440   0.000000   0.000000
                                        }
                                    }
                                }
                            }
                        }
                    }
                }
            }
            JOINT RightCollar
            {
                OFFSET  -3.911900  19.017000  -0.467063
                CHANNELS 3 Zrotation Xrotation Yrotation
                JOINT RightShoulder
                {
                    OFFSET -10.383700   0.000019   0.000000
                    CHANNELS 3 Zrotation Xrotation Yrotation
                    JOINT RightElbow
                    {
                        OFFSET -26.662100   0.001175   0.000102
                        CHANNELS 3 Zrotation Xrotation Yrotation
                        JOINT RightWrist
                        {
                            OFFSET -28.869000   0.000016  -0.000079
                            CHANNELS 3 Zrotation Xrotation Yrotation
                            JOINT RightFinger0
                            {
                                OFFSET  -2.044660  -2.323490   3.252850
                                CHANNELS 3 Zrotation Xrotation Yrotation
                                JOINT RightFinger01
                                {
                                    OFFSET  -3.088140   0.000000   0.000000
                                    CHANNELS 3 Zrotation Xrotation Yrotation
                                    JOINT RightFinger02
                                    {
                                        OFFSET  -2.639460   0.000000   0.000000
                                        CHANNELS 3 Zrotation Xrotation Yrotation
                                        End Site
                                        {
                                            OFFSET  -2.582190   0.000000   0.000000
                                        }
                                    }
                                }
                            }
                            JOINT RightFinger1
                            {
                                OFFSET  -8.364480   0.000000   3.252850
                                CHANNELS 3 Zrotation Xrotation Yrotation
                                JOINT RightFinger11
                                {
                                    OFFSET  -4.646930   0.000000   0.000000
                                    CHANNELS 3 Zrotation Xrotation Yrotation
                                    JOINT RightFinger12
                                    {
                                        OFFSET  -2.323470   0.000000   0.000000
                                        CHANNELS 3 Zrotation Xrotation Yrotation
                                        End Site
                                        {
                                            OFFSET  -2.273050   0.000000   0.000000
                                        }
                                    }
                                }
                            }
                            JOINT RightFinger2
                            {
                                OFFSET  -8.364480   0.000000   1.078090
                                CHANNELS 3 Zrotation Xrotation Yrotation
                                JOINT RightFinger21
                                {
                                    OFFSET  -5.111620   0.000000   0.000000
                                    CHANNELS 3 Zrotation Xrotation Yrotation
                                    JOINT RightFinger22
                                    {
                                        OFFSET  -2.788160   0.000000   0.000000
                                        CHANNELS 3 Zrotation Xrotation Yrotation
                                        End Site
                                        {
                                            OFFSET  -2.727660   0.000000   0.000000
                                        }
                                    }
                                }
                            }
                            JOINT RightFinger3
                            {
                                OFFSET  -7.899780   0.000000  -1.078090
                                CHANNELS 3 Zrotation Xrotation Yrotation
                                JOINT RightFinger31
                                {
                                    OFFSET  -4.646930   0.000000   0.000000
                                    CHANNELS 3 Zrotation Xrotation Yrotation
                                    JOINT RightFinger32
                                    {
                                        OFFSET  -2.323470   0.000000   0.000000
                                        CHANNELS 3 Zrotation Xrotation Yrotation
                                        End Site
                                        {
                                            OFFSET  -2.273050   0.000000   0.000000
                                        }
                                    }
                                }
                            }
                            JOINT RightFinger4
                            {
                                OFFSET  -7.435090   0.000000  -3.252850
                                CHANNELS 3 Zrotation Xrotation Yrotation
                                JOINT RightFinger41
                                {
                                    OFFSET  -3.717550   0.000000   0.000000
                                    CHANNELS 3 Zrotation Xrotation Yrotation
                                    JOINT RightFinger42
                                    {
                                        OFFSET  -1.858770   0.000000   0.000000
                                        CHANNELS 3 Zrotation Xrotation Yrotation
                                        End Site
                                        {
                                            OFFSET  -1.818440   0.000000   0.000000
                                        }
                                    }
                                }
                            }
                        }
                    }
                }
            }
        }
    }
    JOINT LeftHip
    {
        OFFSET   9.783040   0.000000   0.000000
        CHANNELS 3 Zrotation Xrotation Yrotation
        JOINT LeftKnee
        {
            OFFSET   0.000032 -41.789100  -0.002222
            CHANNELS 3 Zrotation Xrotation Yrotation
            JOINT LeftAnkle
            {
                OFFSET   0.000087 -41.133200  -0.000135
                CHANNELS 3 Zrotation Xrotation Yrotation
                JOINT LeftToe
                {
                    OFFSET   0.000000  -6.358960  14.674500
                    CHANNELS 3 Zrotation Xrotation Yrotation
                    End Site
                    {
                        OFFSET   0.000000   0.000000   3.913200
                    }
                }
            }
        }
    }
    JOINT RightHip
    {
        OFFSET  -9.783040   0.000000   0.000000
        CHANNELS 3 Zrotation Xrotation Yrotation
        JOINT RightKnee
        {
            OFFSET   0.000047 -41.789100  -0.000896
            CHANNELS 3 Zrotation Xrotation Yrotation
            JOINT RightAnkle
            {
                OFFSET  -0.000117 -41.133300  -0.000248
                CHANNELS 3 Zrotation Xrotation Yrotation
                JOINT RightToe
                {
                    OFFSET   0.000000  -6.358970  14.674500
                    CHANNELS 3 Zrotation Xrotation Yrotation
                    End Site
                    {
                        OFFSET   0.000000   0.000000   3.913200
                    }
                }
            }
        }
    }
}
MOTION
Frames: 4
Frame Time:   0.016667
  0.066091  89.559700  -0.164473  -1.412970  -1.675860   3.834150   0.789265   2.567320  -1.017680   1.626540   5.119940  -2.073830   1.052660  -0.779086   0.018672   1.731580  -1.578400   3.592100  -4.798290   3.735550   1.397340 -68.101400  10.694500  -6.614600  -2.557780  -1.806850  -7.207750   2.948170  -5.277890   1.049270  39.159700  24.364100 -62.041300 -22.330200  -0.005003  -0.001990  -6.165090  -0.002337  -0.005777 -26.567100   3.117760  -6.203940 -21.882400   0.009062   0.004466 -15.317600  -0.001517   0.002819 -27.061000   1.632700  -3.179320 -27.442700   0.000000  -0.002470 -18.259000   0.012998  -0.003999 -25.643500  -1.226260   2.571310 -25.670500   0.001165  -0.002652 -17.100700   0.003531  -0.001468 -25.917900  -1.238300   2.565400 -38.918100   0.000000   0.000975 -25.919400  -0.000184  -0.001242   5.962660   1.781920   4.201530  69.877700  -6.012560   3.894990   0.388454  -7.726900   5.806210  -8.814590  -4.788350   2.730670 -35.931300  29.795500  63.236500  33.409900   0.003416  -0.002620  11.709600   0.004514  -0.001476  24.225900   5.495380  12.026000  20.295700   0.002899  -0.000686  14.208500  -0.002850  -0.000457  25.625300   5.475940  11.248800  26.166400   0.001984   0.001116  17.429000  -0.003246   0.000707  25.137900   3.809630   8.093660  25.407800   0.000000   0.000575  16.920700   0.000809   0.000472  25.987800   1.822460   3.730540  39.072100   0.003439   0.006263  26.021300  -0.000210   0.005030   4.081960   2.921770   2.953530   0.934693   0.205948  11.069500  -5.592120  -1.225660   1.759280  -0.000000   0.000000   0.000000  -0.658662   1.228020  -4.838900   1.511710   1.479970 -12.273400  -0.755567  -1.418220   1.958400   0.000000   0.000000  -0.000000
  0.065974  89.559700  -0.164534  -1.413680  -1.675650   3.828780   0.789159   2.567130  -1.017650   1.626320   5.119540  -2.073750   1.052560  -0.777592   0.018637   1.731420  -1.575430   3.592090  -4.798310   3.735580   1.397310 -68.092800  10.699900  -6.614470  -2.556760  -1.795750  -7.217070   2.945270  -5.277880   1.049180  39.156300  24.349900 -62.027000 -22.320600  -0.005007  -0.001985  -6.160290  -0.002335  -0.005775 -26.564000   3.118130  -6.202300 -21.876700   0.009062   0.004463 -15.313700  -0.001516   0.002817 -27.061000   1.633110  -3.177860 -27.437400  -0.000026  -0.002467 -18.258600   0.013023  -0.003990 -25.643600  -1.225920   2.569960 -25.670500   0.001166  -0.002650 -17.099000   0.003529  -0.001467 -25.917800  -1.237960   2.564040 -38.917900   0.000000   0.000975 -25.919300  -0.000187  -0.001243   5.962670   1.782000   4.201200  69.877300  -6.005500   3.895190   0.389084  -7.727060   5.806140  -8.815380  -4.788360   2.727010 -35.930600  29.789500  63.221500  33.410000   0.003420  -0.002621  11.709600   0.004508  -0.001474  24.226700   5.495590  12.019100  20.295800   0.002896  -0.000685  14.208600  -0.002851  -0.000458  25.627000   5.472280  11.241600  26.166600   0.001986   0.001119  17.429100  -0.003247   0.000709  25.138600   3.809730   8.082670  25.407800   0.000000   0.000576  16.920800   0.000807   0.000472  25.988000   1.822440   3.730480  39.072100   0.003441   0.006262  26.021500  -0.000213   0.005032   4.080630   2.947430   2.953810   0.934732   0.166302  11.069700  -5.588320  -1.206040   1.760520  -0.000000   0.000000   0.000000  -0.658699   1.220440  -4.838920   1.511260   1.488760 -12.273400  -0.755107  -1.419240   1.961590   0.000000   0.000000   0.000000
  0.065858  89.559700  -0.164596  -1.414760  -1.675450   3.820050   0.789010   2.566850  -1.017620   1.626010   5.119000  -2.073670   1.052400  -0.773791   0.018602   1.731180  -1.567830   3.592030  -4.798370   3.735600   1.397290 -68.080900  10.705200  -6.614340  -2.555140  -1.778750  -7.231130   2.942370  -5.277880   1.049090  39.162300  24.337700 -62.009800 -22.310900  -0.005011  -0.001980  -6.155480  -0.002332  -0.005771 -26.557100   3.118510  -6.200660 -21.867000   0.009061   0.004456 -15.306900  -0.001511   0.002812 -27.060900   1.633530  -3.176400 -27.429500  -0.000066  -0.002460 -18.258100   0.013052  -0.003977 -25.643700  -1.225590   2.567970 -25.670500   0.001168  -0.002643 -17.095800   0.003522  -0.001463 -25.917000  -1.237610   2.562030 -38.916700   0.000000   0.000975 -25.918500  -0.000196  -0.001246   5.962670   1.782080   4.200880  69.876900  -5.998440   3.895390   0.390339  -7.727210   5.806080  -8.816360  -4.788370   2.721160 -35.929900  29.783500  63.206500  33.410000   0.003425  -0.002621  11.709500   0.004502  -0.001472  24.227600   5.495810  12.012300  20.296000   0.002890  -0.000684  14.208900  -0.002853  -0.000458  25.629000   5.467200  11.233800  26.166900   0.001987   0.001124  17.429400  -0.003250   0.000713  25.139300   3.809830   8.071680  25.407900   0.000000   0.000581  16.921100   0.000804   0.000474  25.988300   1.822390   3.730330  39.072200   0.003446   0.006258  26.021800  -0.000220   0.005035   4.079290   2.973090   2.954120   0.934768   0.126655  11.071300  -5.584520  -1.186430   1.761760   0.000000   0.000000  -0.000000  -0.658736   1.212870  -4.838940   1.510810   1.497560 -12.273800  -0.754571  -1.420250   1.967830   0.000000   0.000000  -0.000000
  0.065879  89.559700  -0.164590  -1.415400  -1.676550   3.811990   0.788949   2.566740  -1.017620   1.625900   5.118810  -2.073670   1.052230  -0.767219   0.018606   1.732290  -1.554620   3.591660  -4.798550   3.735470   1.398000 -68.076200  10.703600  -6.615140  -2.553860  -1.771390  -7.240160   2.946830  -5.285510   1.049120  39.172500  24.344500 -62.000600 -22.311300  -0.005002  -0.001986  -6.155670  -0.002344  -0.005766 -26.545000   3.116030  -6.201640 -21.856500   0.009058   0.004449 -15.299500  -0.001502   0.002805 -27.061000   1.630630  -3.177260 -27.424300  -0.000087  -0.002449 -18.260000   0.013055  -0.003970 -25.643600  -1.227970   2.566740 -25.670600   0.001169  -0.002631 -17.092200   0.003511  -0.001458 -25.912700  -1.240060   2.560820 -38.910300   0.000000   0.000975 -25.914400  -0.000213  -0.001253   5.962740   1.781320   4.202860  69.873600  -5.998720   3.893780   0.391878  -7.727170   5.806460  -8.812580  -4.788380   2.716830 -35.928900  29.782200  63.211800  33.410000   0.003412  -0.002608  11.709400   0.004503  -0.001471  24.226900   5.495750  12.014400  20.295600   0.002884  -0.000672  14.209200  -0.002858  -0.000455  25.629400   5.465560  11.233100  26.166800   0.001982   0.001130  17.429800  -0.003255   0.000717  25.139100   3.809760   8.077550  25.407800   0.000000   0.000590  16.921500   0.000802   0.000481  25.988200   1.822320   3.730140  39.072100   0.003451   0.006251  26.021700  -0.000229   0.005036   4.079520   2.969160   2.954140   0.934927   0.145557  11.075500  -5.586160  -1.195830   1.761300   0.000000   0.000000   0.000000  -0.658699   1.220300  -4.835120   1.512170   1.490720 -12.278900  -0.754763  -1.418240   1.975540   0.000000   0.000000   0.000000
